<?xml version="1.0" encoding="UTF-8"?> <svg xmlns="http://www.w3.org/2000/svg" viewBox="0 0 285.45474 84.56751"><polygon points="64.03 62.471 64.03 0.194 0 0.194 0 62.471 32.014 0.284 64.03 62.471" style="fill:#e11837"></polygon><path d="M81.95492,14.23588a2.99124,2.99124,0,1,1-2.98209-2.975A2.98039,2.98039,0,0,1,81.95492,14.23588Zm-5.53136.007a2.54078,2.54078,0,1,0,2.54927-2.541A2.53871,2.53871,0,0,0,76.42356,14.24292Zm4.03678,1.67122H79.963l-.94423-1.54089h-.74068v1.54089h-.42744v-3.357H79.3229a1.28824,1.28824,0,0,1,.80809.18165.81807.81807,0,0,1,.38189.71915c0,.66328-.4721.90742-1.053.9153Zm-1.56488-1.8616c.46633,0,1.19083.06869,1.19083-.6103,0-.50438-.45061-.56438-.86271-.56438h-.9455v1.17468Z" transform="translate(-9.25341 -11.26083)" style="fill:#e11837"></path><path d="M107.45589,39.38221H93.12572l-2.58985,7.23717H82.56819L95.74551,11.85784H104.837l13.12643,34.76154h-7.91678ZM94.96431,33.25214H105.57l-5.27872-14.98408Z" transform="translate(-9.25341 -11.26083)" style="fill:#005da4"></path><path d="M150.75208,31.47643c0-2.23426-1.0214-3.823-3.67743-3.823a6.58942,6.58942,0,0,0-5.10745,2.78041V46.61938h-6.53766V31.47643c0-2.23426-1.02161-3.823-3.67744-3.823a6.66,6.66,0,0,0-5.10765,2.82988v16.1361h-6.48656V22.63873h6.48656v3.12789a10.90116,10.90116,0,0,1,8.07008-3.7237c3.62634,0,5.92466,1.63844,6.84407,4.36918a10.54752,10.54752,0,0,1,8.47848-4.36918c4.54574,0,7.25267,2.33359,7.25267,7.24892V46.61938h-6.53767Z" transform="translate(-9.25341 -11.26083)" style="fill:#005da4"></path><path d="M174.04023,21.4471c7.35487,0,12.36032,5.36214,12.36032,13.20669v1.3903H168.06448c.40881,3.02855,2.91132,5.56062,7.09957,5.56062a10.25841,10.25841,0,0,0,6.58855-2.38307l2.86044,4.07118c-2.45163,2.18459-6.33326,3.32656-10.164,3.32656-7.508,0-13.17753-4.91533-13.17753-12.61088A12.37711,12.37711,0,0,1,174.04023,21.4471Zm-6.078,10.32714h12.15592c-.1531-2.28392-1.78752-5.31247-6.078-5.31247A5.86062,5.86062,0,0,0,167.96227,31.77424Z" transform="translate(-9.25341 -11.26083)" style="fill:#005da4"></path><path d="M190.28136,22.63873h6.48635v3.27689a11.29355,11.29355,0,0,1,8.1558-3.823v6.15663a6.8793,6.8793,0,0,0-2.08139-.22675c-2.145,0-5.0019,1.21971-6.07441,2.75882v15.8381h-6.48635Z" transform="translate(-9.25341 -11.26083)" style="fill:#005da4"></path><path d="M207.84988,22.63873h6.48635V46.61938h-6.48635Z" transform="translate(-9.25341 -11.26083)" style="fill:#005da4"></path><path d="M231.44546,21.4471c5.05634,0,8.12118,2.13492,9.7556,4.31952l-4.23955,3.8727a6.03488,6.03488,0,0,0-5.20944-2.58174c-3.93294,0-6.69118,2.78041-6.69118,6.95092s2.75824,7.00039,6.69118,7.00039a6.28161,6.28161,0,0,0,5.20944-2.58173l4.23955,3.823c-1.63442,2.23426-4.69926,4.36919-9.7556,4.36919-7.61017,0-13.07533-5.21314-13.07533-12.61088C218.37013,26.66044,223.83529,21.4471,231.44546,21.4471Z" transform="translate(-9.25341 -11.26083)" style="fill:#005da4"></path><path d="M259.43328,43.54116a10.356,10.356,0,0,1-7.81458,3.07822c-3.93253,0-8.58048-2.58174-8.58048-7.94388,0-5.61049,4.648-7.64608,8.58048-7.64608,3.26883,0,6.18016.993,7.81458,2.92942V30.63228c0-2.43273-2.145-4.02151-5.41385-4.02151a10.54063,10.54063,0,0,0-7.20177,2.82988L244.366,25.22047a16.46763,16.46763,0,0,1,10.77721-3.77337c5.61826,0,10.7768,2.18459,10.7768,9.08584l-.00049,16.08644h-6.48677Zm0-6.256a6.57823,6.57823,0,0,0-5.20945-2.08525c-2.55382,0-4.64794,1.291-4.64794,3.62456,0,2.23406,2.09412,3.525,4.64794,3.525a6.57821,6.57821,0,0,0,5.20945-2.08526Z" transform="translate(-9.25341 -11.26083)" style="fill:#005da4"></path><path d="M288.18823,32.12172c0-3.32636-1.78751-4.46832-4.54574-4.46832a7.08359,7.08359,0,0,0-5.61825,2.82988v16.1361h-6.48636V22.63873h6.48636v3.12789a11.43325,11.43325,0,0,1,8.63178-3.7237c5.41385,0,8.019,2.97907,8.019,7.64607V46.61938h-6.48677Z" transform="translate(-9.25341 -11.26083)" style="fill:#005da4"></path><path d="M212.13305,14.72337h3.50247v.02435L212.814,16.83959l1.09464,3.33231-.02435.02435-2.785-2.06751-2.785,2.06751-.02435-.02435,1.10652-3.33231-2.84588-2.09187v-.02435h3.4906l1.04593-3.27158h.02436Z" transform="translate(-9.25341 -11.26083)" style="fill:#005da4"></path><polygon points="86.353 42.555 86.353 50.483 77.028 50.483 77.028 42.555 73.315 42.555 73.315 62.366 77.028 62.366 77.028 53.915 86.353 53.915 86.353 62.366 90.066 62.366 90.066 42.555 86.353 42.555" style="fill:#e11837"></polygon><path d="M111.18994,53.81352a9.528,9.528,0,0,0-9.79456,9.90682,9.79509,9.79509,0,1,0,19.58891,0A9.52794,9.52794,0,0,0,111.18994,53.81352Zm5.99673,9.90682c0,3.86179-2.466,6.55891-5.99673,6.55891-3.53092,0-5.99694-2.69712-5.99694-6.55891s2.466-6.55888,5.99694-6.55888C114.72072,57.16146,117.18667,59.85856,117.18667,63.72034Z" transform="translate(-9.25341 -11.26083)" style="fill:#e11837"></path><polygon points="111.714 42.555 111.501 42.555 111.501 42.775 111.501 45.766 111.501 45.986 111.714 45.986 117.177 45.986 117.177 62.146 117.177 62.366 117.39 62.366 120.678 62.366 120.891 62.366 120.891 62.146 120.891 45.986 126.354 45.986 126.566 45.986 126.566 45.766 126.566 42.775 126.566 42.555 126.354 42.555 111.714 42.555" style="fill:#e11837"></polygon><polygon points="128.49 42.555 128.277 42.555 128.277 42.775 128.277 62.146 128.277 62.366 128.49 62.366 141.331 62.366 141.544 62.366 141.544 62.146 141.544 59.155 141.544 58.935 141.331 58.935 131.99 58.935 131.99 54.002 141.134 54.002 141.347 54.002 141.347 53.782 141.347 50.791 141.347 50.571 141.134 50.571 131.99 50.571 131.99 45.986 141.331 45.986 141.544 45.986 141.544 45.766 141.544 42.775 141.544 42.555 141.331 42.555 128.49 42.555" style="fill:#e11837"></polygon><polygon points="147.558 58.93 147.558 42.745 147.558 42.525 147.346 42.525 144.058 42.525 143.845 42.525 143.845 42.745 143.845 62.146 143.845 62.366 144.058 62.366 155.607 62.366 155.82 62.366 155.82 62.146 155.82 59.15 155.82 58.93 155.607 58.93 147.558 58.93" style="fill:#e11837"></polygon><path d="M184.45515,65.96357a5.5883,5.5883,0,0,0,4.30792-5.84039,5.974,5.974,0,0,0-6.33831-6.28159h-8.44552v19.7856h3.71342V66.405H180.618l4.09644,7.11473.06187.10748h4.29753l-.20238-.33585Zm.51051-5.84039A2.769,2.769,0,0,1,181.9753,62.978h-4.28264V57.26855h4.28264A2.76889,2.76889,0,0,1,184.96566,60.12318Z" transform="translate(-9.25341 -11.26083)" style="fill:#e11837"></path><path d="M214.60027,62.77692h-.21289v3.31987h5.59155v2.6154a6.727,6.727,0,0,1-4.22651,1.56706c-3.62135,0-6.24974-2.77023-6.24974-6.587a6.19941,6.19941,0,0,1,6.24974-6.55888,5.7873,5.7873,0,0,1,4.68661,2.40994l.1106.15806.16816-.09457,2.69764-1.51722.205-.11528-.135-.19251a8.97181,8.97181,0,0,0-7.73294-3.99636,9.92166,9.92166,0,1,0,0,19.84173,10.35492,10.35492,0,0,0,7.885-3.47005l.055-.06078V62.77692h-9.09208Z" transform="translate(-9.25341 -11.26083)" style="fill:#e11837"></path><polygon points="217.009 42.581 216.796 42.581 216.796 42.801 216.796 62.147 216.796 62.366 217.009 62.366 220.297 62.366 220.509 62.366 220.509 62.147 220.509 42.801 220.509 42.581 220.297 42.581 217.009 42.581" style="fill:#e11837"></polygon><path d="M239.83054,61.60327l-.02786-.007c-2.11535-.53546-3.94223-.9979-3.94223-2.28742,0-1.28741,1.16268-2.11928,2.96209-2.11928a7.36508,7.36508,0,0,1,5.27261,2.07315l.17135.17134.14787-.192,1.88228-2.44443.116-.15064-.13661-.13222a9.924,9.924,0,0,0-7.17241-2.67314c-4.07984,0-7.041,2.39391-7.041,5.69216,0,4.13675,3.782,5.07353,6.821,5.82626l.04311.01118c2.18186.56552,4.06619,1.05392,4.06619,2.56384,0,1.08139-.93028,2.34422-3.55209,2.34422a7.87905,7.87905,0,0,1-5.77353-2.518l-.17666-.18822-.15114.20924-1.82657,2.52884-.10267.14217.11985.128a10.3066,10.3066,0,0,0,7.77018,3.04589,8.24363,8.24363,0,0,0,5.66332-1.77888,5.49238,5.49238,0,0,0,1.79887-4.22222C246.76247,63.3682,242.9189,62.38961,239.83054,61.60327Z" transform="translate(-9.25341 -11.26083)" style="fill:#e11837"></path><polygon points="238.196 42.568 237.983 42.568 237.983 42.788 237.983 45.779 237.983 45.999 238.196 45.999 243.659 45.999 243.659 62.159 243.659 62.379 243.872 62.379 247.159 62.379 247.372 62.379 247.372 62.159 247.372 45.999 252.835 45.999 253.048 45.999 253.048 45.779 253.048 42.788 253.048 42.568 252.835 42.568 238.196 42.568" style="fill:#e11837"></polygon><polygon points="181.928 42.555 181.716 42.555 181.716 42.775 181.716 62.146 181.716 62.366 181.928 62.366 194.77 62.366 194.982 62.366 194.982 62.146 194.982 59.155 194.982 58.935 194.77 58.935 185.429 58.935 185.429 54.002 194.573 54.002 194.786 54.002 194.786 53.782 194.786 50.791 194.786 50.571 194.573 50.571 185.429 50.571 185.429 45.986 194.77 45.986 194.982 45.986 194.982 45.766 194.982 42.775 194.982 42.555 194.77 42.555 181.928 42.555" style="fill:#e11837"></polygon><polygon points="254.972 42.568 254.759 42.568 254.759 42.788 254.759 62.159 254.759 62.379 254.972 62.379 267.813 62.379 268.026 62.379 268.026 62.159 268.026 59.168 268.026 58.948 267.813 58.948 258.472 58.948 258.472 54.015 267.616 54.015 267.829 54.015 267.829 53.795 267.829 50.804 267.829 50.584 267.616 50.584 258.472 50.584 258.472 45.999 267.813 45.999 268.026 45.999 268.026 45.779 268.026 42.788 268.026 42.568 267.813 42.568 254.972 42.568" style="fill:#e11837"></polygon><path d="M290.08943,65.93551a5.5883,5.5883,0,0,0,4.30792-5.8404,5.974,5.974,0,0,0-6.33831-6.28159h-8.44552V73.59913h3.71342V66.37691h2.92537l4.09644,7.11473.06187.10749h4.29753l-.20238-.33585Zm.51051-5.8404A2.769,2.769,0,0,1,287.60958,62.95h-4.28264V57.24049h4.28264A2.76888,2.76888,0,0,1,290.59994,60.09511Z" transform="translate(-9.25341 -11.26083)" style="fill:#e11837"></path><path d="M209.2834,94.80392a3.26379,3.26379,0,0,1-2.49707,1.02441,2.56839,2.56839,0,0,1-2.68945-2.56152,2.48961,2.48961,0,0,1,2.68945-2.51269,3.19683,3.19683,0,0,1,2.49707.99218V90.594c0-.89649-.73633-1.44043-1.80859-1.44043a3.16572,3.16572,0,0,0-2.28907.97656l-.68847-1.16894a4.59542,4.59542,0,0,1,3.249-1.24805c1.71289,0,3.21777.71973,3.21777,2.80078v5.12207H209.2834Zm0-2.09668a2.26406,2.26406,0,0,0-1.84082-.80078,1.40586,1.40586,0,1,0,0,2.76953,2.26406,2.26406,0,0,0,1.84082-.80078Z" transform="translate(-9.25341 -11.26083)" style="fill:#231f20"></path><path d="M216.94453,90.30587a5.36677,5.36677,0,0,1,5.52246-5.52246,4.86447,4.86447,0,0,1,4.36914,2.40137l-1.60058.81641a3.20107,3.20107,0,0,0-2.76856-1.55274,3.86651,3.86651,0,0,0,0,7.71485,3.16813,3.16813,0,0,0,2.76856-1.55274l1.60058.81641a4.88651,4.88651,0,0,1-4.36914,2.40136A5.36677,5.36677,0,0,1,216.94453,90.30587Z" transform="translate(-9.25341 -11.26083)" style="fill:#231f20"></path><path d="M235.82832,91.01937h-5.55469v4.809h-1.87207V84.806h1.87207v4.51155h5.55469V84.806h1.87305V95.82833h-1.87305Z" transform="translate(-9.25341 -11.26083)" style="fill:#231f20"></path><path d="M240.385,92.69064a4.606,4.606,0,0,0,3.37793,1.47266c1.53613,0,2.14453-.752,2.14453-1.45606,0-.96094-1.13672-1.249-2.43261-1.585-1.74512-.43262-3.79395-.94434-3.79395-3.20117,0-1.76074,1.55273-3.1211,3.88965-3.1211a5.55261,5.55261,0,0,1,4.00195,1.48829l-1.07226,1.39257a4.34317,4.34317,0,0,0-3.08985-1.21679c-1.10449,0-1.80859.52832-1.80859,1.3291,0,.832,1.08887,1.10449,2.35254,1.42383,1.76074.44824,3.8584.99316,3.8584,3.31347,0,1.77735-1.249,3.29785-4.12989,3.29785a5.711,5.711,0,0,1-4.33789-1.69726Z" transform="translate(-9.25341 -11.26083)" style="fill:#231f20"></path><path d="M253.77656,84.8h5.25a2.77252,2.77252,0,0,1,3.041,2.8113,2.4638,2.4638,0,0,1-1.85645,2.52987,2.69358,2.69358,0,0,1,2.06446,2.71143,2.84586,2.84586,0,0,1-3.10547,2.97572h-5.39356Zm4.86524,4.56345a1.43173,1.43173,0,1,0,0-2.85972h-2.99317v2.85972Zm.08008,4.76216a1.45958,1.45958,0,0,0,1.63281-1.5383,1.48765,1.48765,0,0,0-1.63281-1.52014h-3.07325v3.05844Z" transform="translate(-9.25341 -11.26083)" style="fill:#231f20"></path><path d="M264.16133,88.09689H265.842v1.13672a3.30015,3.30015,0,0,1,2.5127-1.3125v1.665a2.46283,2.46283,0,0,0-.52832-.04883,2.66955,2.66955,0,0,0-1.98438,1.02441v5.2666h-1.68066Z" transform="translate(-9.25341 -11.26083)" style="fill:#231f20"></path><path d="M274.49824,94.80392a3.26377,3.26377,0,0,1-2.49707,1.02441,2.56839,2.56839,0,0,1-2.68945-2.56152,2.48961,2.48961,0,0,1,2.68945-2.51269,3.19682,3.19682,0,0,1,2.49707.99218V90.594c0-.89649-.73633-1.44043-1.80859-1.44043a3.16568,3.16568,0,0,0-2.28906.97656l-.68848-1.16894a4.59542,4.59542,0,0,1,3.249-1.24805c1.71289,0,3.21778.71973,3.21778,2.80078v5.12207h-1.68067Zm0-2.09668a2.264,2.264,0,0,0-1.84082-.80078,1.40586,1.40586,0,1,0,0,2.76953,2.264,2.264,0,0,0,1.84082-.80078Z" transform="translate(-9.25341 -11.26083)" style="fill:#231f20"></path><path d="M283.635,90.99435c0-1.2002-.6084-1.60059-1.55273-1.60059a2.543,2.543,0,0,0-1.98438,1.04v5.39453h-1.68066V88.09689h1.68066v1.05664a3.65474,3.65474,0,0,1,2.72071-1.24805,2.22808,2.22808,0,0,1,2.49707,2.48047v5.44238H283.635Z" transform="translate(-9.25341 -11.26083)" style="fill:#231f20"></path><path d="M292.99434,94.57931a3.12941,3.12941,0,0,1-2.48047,1.249c-1.98535,0-3.44141-1.50488-3.44141-4.0498,0-2.49707,1.44043-4.06543,3.44141-4.06543a3.10068,3.10068,0,0,1,2.48047,1.26465l-.00091-4.17173h1.68066l.00091,10.82993h-1.68066Zm0-4.33789a2.53841,2.53841,0,0,0-2-1.04,2.47068,2.47068,0,0,0-2.33455,2.66553,2.30938,2.30938,0,0,0,2.33455,2.47217,2.525,2.525,0,0,0,2-1.02442Z" transform="translate(-9.25341 -11.26083)" style="fill:#231f20"></path></svg> 