<?xml version="1.0" encoding="utf-8"?>
<!-- Generator: Adobe Illustrator 24.3.0, SVG Export Plug-In . SVG Version: 6.00 Build 0)  -->
<svg version="1.1" id="Layer_1" xmlns="http://www.w3.org/2000/svg" xmlns:xlink="http://www.w3.org/1999/xlink" x="0px" y="0px"
	 viewBox="0 0 329.6 71.4" style="enable-background:new 0 0 329.6 71.4;" xml:space="preserve">
<style type="text/css">
	.st0{fill:#FFFFFF;}
	.st1{fill:#184997;}
	.st2{fill:#231F20;}
</style>
<polygon class="st0" points="53.2,67.4 32.8,67.4 32.8,71.4 24.5,71.4 24.5,67.4 4.1,67.4 4.1,18.5 53.2,18.5 "/>
<path class="st1" d="M57.7,0L0,15.6l-0.3,55.8h24.8V58.2h8.3v13.2h24.7L57.7,0z M10.5,66.3H5.1v-5.1h5.4L10.5,66.3z M10.5,58.2H5.1
	v-5.1h5.4L10.5,58.2z M10.5,50.1H5.1V45h5.4L10.5,50.1z M10.5,42.1H5.1v-5.1h5.4L10.5,42.1z M10.5,34H5.1v-5.1h5.4L10.5,34z
	 M10.5,25.9H5.1v-5.1h5.4L10.5,25.9z M18.8,66.3h-5.4v-5.1h5.4L18.8,66.3z M18.8,58.2h-5.4v-5.1h5.4L18.8,58.2z M18.8,50.1h-5.4V45
	h5.4L18.8,50.1z M18.8,42.1h-5.4v-5.1h5.4L18.8,42.1z M18.8,34h-5.4v-5.1h5.4L18.8,34z M18.8,25.9h-5.4v-5.1h5.4L18.8,25.9z
	 M27.2,50.1h-5.3V45h5.4L27.2,50.1z M27.2,42.1h-5.3v-5.1h5.4L27.2,42.1z M35.5,50.1h-5.3V45h5.4L35.5,50.1z M35.5,42.1h-5.3v-5.1
	h5.4L35.5,42.1z M43.8,66.3h-5.4v-5.1h5.4V66.3z M43.8,58.2h-5.4v-5.1h5.4V58.2z M43.8,50.1h-5.4V45h5.4V50.1z M43.8,42.1h-5.4v-5.1
	h5.4V42.1z M43.8,34h-5.4v-5.1h5.4V34z M43.8,25.9h-5.4v-5.1h5.4V25.9z M52.2,66.3h-5.4v-5.1h5.4L52.2,66.3z M52.2,58.2h-5.4v-5.1
	h5.4L52.2,58.2z M52.2,50.1h-5.4V45h5.4L52.2,50.1z M52.2,42.1h-5.4v-5.1h5.4L52.2,42.1z M52.2,34h-5.4v-5.1h5.4L52.2,34z
	 M52.2,25.9h-5.4v-5.1h5.4L52.2,25.9z"/>
<path class="st2" d="M72.8,26.7c-0.1-5,3.8-9.1,8.7-9.3c0.2,0,0.4,0,0.5,0c3-0.1,5.8,1.4,7.3,4l-2.7,1.4c-1-1.6-2.8-2.6-4.7-2.6
	c-3.4,0-6,2.7-6,6.5s2.6,6.5,6,6.5c1.9,0,3.7-1,4.7-2.6l2.7,1.4c-1.5,2.6-4.3,4.1-7.3,4c-5,0.1-9.1-3.8-9.3-8.7
	C72.8,27,72.8,26.8,72.8,26.7z"/>
<path class="st2" d="M105.7,17.4c4.9-0.2,9,3.7,9.2,8.6c0,0.2,0,0.4,0,0.7c0.2,5.1-3.8,9.3-8.9,9.5c-5.1,0.2-9.3-3.8-9.5-8.9
	c0-0.2,0-0.4,0-0.6c-0.2-4.9,3.6-9,8.5-9.3C105.2,17.4,105.4,17.4,105.7,17.4z M105.7,20.2c-3.6,0-5.9,2.8-5.9,6.5s2.3,6.5,5.9,6.5
	s5.9-2.8,5.9-6.5S109.2,20.2,105.7,20.2z"/>
<path class="st2" d="M126.3,22.6v13h-3.1V17.7h3.2l9.2,12.7V17.7h3.1v17.9h-3L126.3,22.6z"/>
<path class="st2" d="M148.5,30.7c1.5,1.6,3.5,2.5,5.7,2.5c2.6,0,3.6-1.3,3.6-2.4c0-1.6-1.9-2.1-4.1-2.7c-2.9-0.7-6.4-1.6-6.4-5.4
	c0-3,2.6-5.2,6.5-5.2c2.5-0.1,4.9,0.8,6.7,2.5l-1.8,2.3c-1.4-1.3-3.3-2-5.2-2c-1.9,0-3,0.9-3,2.2s1.8,1.8,3.9,2.4
	c2.9,0.8,6.5,1.7,6.5,5.5c0,3-2.1,5.5-6.9,5.5c-2.7,0.1-5.4-0.9-7.3-2.8L148.5,30.7z"/>
<path class="st2" d="M177.5,17.4c4.9-0.2,9,3.7,9.2,8.6c0,0.2,0,0.4,0,0.7c0.2,5.1-3.8,9.3-8.9,9.5c-5.1,0.2-9.3-3.8-9.5-8.9
	c0-0.2,0-0.4,0-0.6c-0.2-4.9,3.6-9,8.5-9.3C177.1,17.4,177.3,17.4,177.5,17.4z M177.5,20.2c-3.6,0-5.9,2.8-5.9,6.5s2.3,6.5,5.9,6.5
	s5.9-2.8,5.9-6.5S181.1,20.2,177.5,20.2L177.5,20.2z"/>
<path class="st2" d="M195.1,17.7h3.1v15.1h7.9v2.8h-11L195.1,17.7z"/>
<path class="st2" d="M214.3,17.7h3.1v17.9h-3.1V17.7z"/>
<path class="st2" d="M226.7,17.7h6.7c5.6,0,9.4,3.7,9.4,9s-3.8,8.9-9.4,8.9h-6.7V17.7z M233.3,32.8c3.2,0.1,6-2.4,6.1-5.6
	c0-0.2,0-0.4,0-0.6c0-3.5-2.1-6.2-6.1-6.2h-3.5v12.4H233.3z"/>
<path class="st2" d="M261.5,32.2H253l-1.3,3.4h-3.4l7-17.9h3.9l7,17.9h-3.4L261.5,32.2z M253.9,29.4h6.7l-3.4-9L253.9,29.4z"/>
<path class="st2" d="M276.1,20.5h-5.5v-2.8h14v2.8h-5.4v15.1h-3.1L276.1,20.5z"/>
<path class="st2" d="M292.6,17.7h12.3v2.8h-9.1v4.7h8.9v2.8h-8.9v5h9.1v2.7h-12.3V17.7z"/>
<path class="st2" d="M313.5,17.7h6.6c5.6,0,9.4,3.7,9.4,9s-3.8,8.9-9.4,8.9h-6.6V17.7z M320.2,32.8c3.2,0.2,6-2.4,6.2-5.6
	c0-0.2,0-0.4,0-0.6c0-3.5-2.1-6.2-6.1-6.2h-3.5v12.4H320.2z"/>
<path class="st2" d="M82.9,52.9h-7.1v5.3h-1V47h1v5h7.1v-5h1v11.2h-1V52.9z"/>
<path class="st2" d="M95.9,46.8c3.3,0,5.5,2.5,5.5,5.8c0,3.3-2.2,5.8-5.5,5.8s-5.5-2.5-5.5-5.8S92.7,46.8,95.9,46.8z M95.9,47.7
	c-2.7,0-4.4,2.1-4.4,4.9s1.7,4.9,4.4,4.9s4.4-2.1,4.4-4.9S98.7,47.7,95.9,47.7z"/>
<path class="st2" d="M108,55.9c0.9,1,2.1,1.6,3.5,1.6c2.3,0,3-1.3,3-2.2c0-1.6-1.5-2-3.1-2.4c-1.8-0.5-3.7-1-3.7-3.1
	c0-1.8,1.7-3,3.7-3c1.4-0.1,2.8,0.5,3.8,1.6l-0.6,0.7c-0.8-0.9-2-1.5-3.2-1.4c-1.5,0-2.6,0.9-2.6,2.1s1.4,1.7,2.9,2.1
	c1.8,0.5,3.8,1.1,3.8,3.4c0,1.4-1,3.2-4,3.2c-1.6,0.1-3.1-0.6-4.1-1.8L108,55.9z"/>
<path class="st2" d="M122,47h4.2c1.8-0.1,3.4,1.3,3.5,3.1c0.1,1.8-1.3,3.4-3.1,3.5c-0.1,0-0.2,0-0.4,0h-3.3v4.7h-1L122,47z
	 M126.1,47.9h-3.2v4.8h3.2c1.3,0,2.4-1.1,2.4-2.4C128.5,48.9,127.4,47.9,126.1,47.9C126.1,47.9,126.1,47.9,126.1,47.9z"/>
<path class="st2" d="M135.8,47h1v11.2h-1V47z"/>
<path class="st2" d="M146.7,47.9H143V47h8.3v0.9h-3.6v10.3h-1V47.9z"/>
<path class="st2" d="M163.4,55.5h-6l-1.1,2.7h-1.1l4.6-11.2h1.2l4.6,11.2h-1.1L163.4,55.5z M157.7,54.6h5.4l-2.7-6.7L157.7,54.6z"/>
<path class="st2" d="M171.5,47h1v10.4h5.4v0.8h-6.4L171.5,47z"/>
<path class="st2" d="M184.2,47h1v11.2h-1V47z"/>
<path class="st2" d="M195,47.9h-3.7V47h8.3v0.9H196v10.3h-1L195,47.9z"/>
<path class="st2" d="M209.2,53.4l-4.5-6.4h1.2l3.8,5.5l3.8-5.5h1.2l-4.5,6.4v4.8h-1V53.4z"/>
<path class="st2" d="M229.1,55.9c0.9,1,2.2,1.6,3.5,1.6c2.3,0,3-1.3,3-2.2c0-1.6-1.5-2-3.1-2.4c-1.8-0.5-3.6-1-3.6-3.1
	c0-1.8,1.6-3,3.7-3c1.4-0.1,2.8,0.5,3.8,1.6l-0.6,0.7c-0.8-0.9-2-1.5-3.2-1.4c-1.5,0-2.6,0.9-2.6,2.1s1.4,1.7,2.9,2.1
	c1.8,0.5,3.8,1.1,3.8,3.4c0,1.4-1,3.2-4,3.2c-1.6,0.1-3.1-0.6-4.1-1.8L229.1,55.9z"/>
<path class="st2" d="M243.1,47h1v6.9c0,2.3,1.2,3.7,3.4,3.7s3.4-1.4,3.4-3.7V47h1v6.9c0,2.8-1.5,4.5-4.4,4.5s-4.4-1.8-4.4-4.5
	L243.1,47z"/>
<path class="st2" d="M258.9,47h4.2c1.8-0.1,3.4,1.3,3.5,3.1c0.1,1.8-1.3,3.4-3.1,3.5c-0.1,0-0.2,0-0.4,0h-3.2v4.7h-1L258.9,47z
	 M263,47.9h-3.1v4.8h3.1c1.3,0,2.4-1.1,2.4-2.4C265.4,48.9,264.3,47.9,263,47.9C263,47.9,263,47.9,263,47.9z"/>
<path class="st2" d="M272.7,47h4.2c1.8-0.1,3.4,1.3,3.5,3.1c0.1,1.8-1.3,3.4-3.1,3.5c-0.1,0-0.2,0-0.4,0h-3.3v4.7h-1L272.7,47z
	 M276.8,47.9h-3.2v4.8h3.1c1.3,0,2.4-1.1,2.4-2.4C279.2,48.9,278.1,47.9,276.8,47.9C276.8,47.9,276.8,47.9,276.8,47.9L276.8,47.9z"
	/>
<path class="st2" d="M286.5,47h1v10.4h5.5v0.8h-6.5V47z"/>
<path class="st2" d="M299.3,47h1v11.2h-1V47z"/>
<path class="st2" d="M307.2,47h7.1v0.9h-6.2V52h6v0.9h-6v4.4h6.2v0.9h-7.1V47z"/>
<path class="st2" d="M321,55.9c0.9,1,2.1,1.6,3.5,1.6c2.3,0,3-1.3,3-2.2c0-1.6-1.5-2-3.1-2.4c-1.8-0.5-3.6-1-3.6-3.1
	c0-1.8,1.6-3,3.7-3c1.4-0.1,2.8,0.5,3.8,1.6l-0.6,0.7c-0.8-0.9-2-1.5-3.2-1.4c-1.5,0-2.6,0.9-2.6,2.1s1.4,1.7,2.9,2.1
	c1.8,0.5,3.8,1.1,3.8,3.4c0,1.4-1,3.2-4,3.2c-1.6,0.1-3.1-0.6-4.1-1.8L321,55.9z"/>
</svg>
