<svg width="32" height="32" viewBox="0 0 32 32" fill="none" xmlns="http://www.w3.org/2000/svg">
<path d="M15.9998 12.0334C16.1775 12.0334 16.3442 12.0612 16.4998 12.1167C16.6553 12.1723 16.7998 12.2667 16.9331 12.4001L23.0664 18.5334C23.3109 18.7778 23.4331 19.0889 23.4331 19.4667C23.4331 19.8445 23.3109 20.1556 23.0664 20.4001C22.822 20.6445 22.5109 20.7667 22.1331 20.7667C21.7553 20.7667 21.4442 20.6445 21.1998 20.4001L15.9998 15.2001L10.7998 20.4001C10.5553 20.6445 10.2442 20.7667 9.86644 20.7667C9.48866 20.7667 9.17755 20.6445 8.9331 20.4001C8.68866 20.1556 8.56644 19.8445 8.56644 19.4667C8.56644 19.0889 8.68866 18.7778 8.9331 18.5334L15.0664 12.4001C15.1998 12.2667 15.3442 12.1723 15.4998 12.1167C15.6553 12.0612 15.822 12.0334 15.9998 12.0334Z" fill="#5F6368"/>
</svg>
