<svg width="20" height="20" viewBox="0 0 20 20" fill="none" xmlns="http://www.w3.org/2000/svg">
<path d="M3.33317 16.6667C2.87484 16.6667 2.48248 16.5035 2.15609 16.1771C1.8297 15.8507 1.6665 15.4584 1.6665 15V5.00004C1.6665 4.54171 1.8297 4.14935 2.15609 3.82296C2.48248 3.49657 2.87484 3.33337 3.33317 3.33337H16.6665C17.1248 3.33337 17.5172 3.49657 17.8436 3.82296C18.17 4.14935 18.3332 4.54171 18.3332 5.00004V15C18.3332 15.4584 18.17 15.8507 17.8436 16.1771C17.5172 16.5035 17.1248 16.6667 16.6665 16.6667H3.33317ZM16.6665 6.66671L10.4373 10.5625C10.3679 10.6042 10.295 10.6355 10.2186 10.6563C10.1422 10.6771 10.0693 10.6875 9.99984 10.6875C9.93039 10.6875 9.85748 10.6771 9.78109 10.6563C9.7047 10.6355 9.63178 10.6042 9.56234 10.5625L3.33317 6.66671V15H16.6665V6.66671ZM9.99984 9.16671L16.6665 5.00004H3.33317L9.99984 9.16671ZM3.33317 6.87504V5.64587V5.66671V5.65629V6.87504Z" fill="#B0B0B0"/>
</svg>
